HIERARCHY
ROOT Hips
{
	OFFSET 0.000000 0.000000 0.000000 
	CHANNELS 6 Xposition Yposition Zposition Zrotation Yrotation Xrotation
	JOINT LeftUpLeg
	{
		OFFSET 1.363060 -1.794630 0.839290 
		CHANNELS 3 Zrotation Yrotation Xrotation
		JOINT LeftLeg
		{
			OFFSET 2.448110 -6.726130 0.000000 
			CHANNELS 3 Zrotation Yrotation Xrotation
			JOINT LeftFoot
			{
				OFFSET 2.562200 -7.039590 0.000000 
				CHANNELS 3 Zrotation Yrotation Xrotation
				JOINT LeftToeBase
				{
					OFFSET 0.157640 -0.433110 2.322550 
					CHANNELS 3 Zrotation Yrotation Xrotation
					End Site
					{
						OFFSET 0.000000 0.000000 0.000000 
					}
				}
			}
		}
	}
	JOINT RightUpLeg
	{
		OFFSET -1.305520 -1.794630 0.839290 
		CHANNELS 3 Zrotation Yrotation Xrotation
		JOINT RightLeg
		{
			OFFSET -2.542530 -6.985550 0.000000 
			CHANNELS 3 Zrotation Yrotation Xrotation
			JOINT RightFoot
			{
				OFFSET -2.568260 -7.056230 0.000000 
				CHANNELS 3 Zrotation Yrotation Xrotation
				JOINT RightToeBase
				{
					OFFSET -0.164730 -0.452590 2.363150 
					CHANNELS 3 Zrotation Yrotation Xrotation
					End Site
					{
						OFFSET 0.000000 0.000000 0.000000 
					}
				}
			}
		}
	}
	JOINT Spine
	{
		OFFSET 0.028270 2.035590 -0.193380 
		CHANNELS 3 Zrotation Yrotation Xrotation
		JOINT Spine1
		{
			OFFSET 0.056720 2.048850 -0.042750 
			CHANNELS 3 Zrotation Yrotation Xrotation
			JOINT Neck1
			{
				OFFSET -0.054170 1.746240 0.172020 
				CHANNELS 3 Zrotation Yrotation Xrotation
				JOINT Head
				{
					OFFSET 0.104070 1.761360 -0.123970 
					CHANNELS 3 Zrotation Yrotation Xrotation
					End Site
					{
						OFFSET 0.000000 0.000000 0.000000 
					}
				}
			}
			JOINT LeftArm
			{
				OFFSET 3.362410 1.200890 -0.311210 
				CHANNELS 3 Zrotation Yrotation Xrotation
				JOINT LeftForeArm
				{
					OFFSET 4.983000 -0.000000 -0.000000 
					CHANNELS 3 Zrotation Yrotation Xrotation
					JOINT LeftHand
					{
						OFFSET 3.483560 -0.000000 -0.000000 
						CHANNELS 3 Zrotation Yrotation Xrotation
						JOINT LeftHandIndex1
						{
							OFFSET 0.715260 -0.000000 -0.000000 
							CHANNELS 3 Zrotation Yrotation Xrotation
							End Site
							{
								OFFSET 0.000000 0.000000 0.000000 
							}
						}
					}
				}
			}
			JOINT RightArm
			{
				OFFSET -3.136600 1.374050 -0.404650 
				CHANNELS 3 Zrotation Yrotation Xrotation
				JOINT RightForeArm
				{
					OFFSET -5.241900 -0.000000 -0.000000 
					CHANNELS 3 Zrotation Yrotation Xrotation
					JOINT RightHand
					{
						OFFSET -3.444170 -0.000000 -0.000000 
						CHANNELS 3 Zrotation Yrotation Xrotation
						JOINT RightHandIndex1
						{
							OFFSET -0.622530 -0.000000 -0.000000 
							CHANNELS 3 Zrotation Yrotation Xrotation
							End Site
							{
								OFFSET 0.000000 0.000000 0.000000 
							}
						}
					}
				}
			}
		}
	}
}
MOTION
Frames: 12
Frame Time: 0.041667
14.977622 17.751346 18.198399 -130.151115 -74.223758 138.013176 0.355480 -7.460306 -34.299082 3.607019 12.335969 36.169573 0.250988 -0.745039 -7.157004 0.282400 3.417700 9.443900 34.511331 1.022305 1.646983 -0.481465 -6.808406 18.796770 -1.016118 0.013547 -18.637818 -0.301000 -3.527500 9.750900 3.603892 2.276742 0.230470 0.457698 0.960778 -1.901105 6.355936 -10.765111 2.955034 3.618200 -5.331700 2.100700 -87.244371 6.073995 3.909526 10.578875 -18.360623 -1.898845 -0.275763 -0.098965 5.536051 -7.125000 0.000000 0.000000 86.110222 3.506090 15.180302 -9.514647 16.519644 -1.553029 0.322423 0.684297 -11.310928 7.125000 0.000000 0.000000 
14.885509 17.752463 18.209571 -131.281032 -74.255177 139.206672 0.034222 -7.615994 -34.075846 3.627905 12.372406 36.290441 0.227685 -0.458983 -7.242774 0.249900 3.216800 8.882900 34.103662 1.122906 1.836867 -0.489897 -6.840975 18.888107 -1.008315 -0.014014 -18.586201 -0.301100 -3.528200 9.752900 3.587638 2.433625 0.231370 0.542970 1.043126 -1.882813 6.371487 -10.791579 3.038145 3.632900 -5.345400 2.162000 -87.393439 6.502486 3.532432 10.598809 -18.398222 -1.907137 -0.271518 -0.098160 5.362458 -7.125000 0.000000 0.000000 85.748416 3.448053 12.664015 -9.162337 15.967082 -1.446376 0.429014 0.630859 -7.361173 7.125000 0.000000 0.000000 
14.788218 17.757642 18.230390 -132.261583 -74.101687 140.208610 -0.195871 -7.627584 -33.835517 3.672378 12.432295 36.499579 0.192619 -0.050825 -7.335203 0.211000 2.957100 8.159300 33.733814 1.095090 2.085630 -0.488742 -6.842346 18.887012 -1.020190 0.547272 -18.198102 -0.354100 -3.822900 10.579000 3.642449 2.501768 0.206876 0.642378 1.073795 -1.965440 6.214632 -10.639396 2.951736 3.608700 -5.273600 2.090700 -87.754692 7.014017 2.903293 10.615419 -18.425408 -1.913049 -0.271316 -0.095623 5.389044 -7.125000 0.000000 0.000000 85.384915 2.955163 14.147099 -9.284546 16.188411 -1.490530 0.298957 0.701694 -11.070224 7.125000 0.000000 0.000000 
14.685239 17.762517 18.243186 -132.284598 -74.256097 140.156064 -0.486047 -7.711387 -33.524640 3.696680 12.470695 36.630489 0.156407 0.191118 -7.062161 0.204600 2.912700 8.035900 33.478900 0.836556 2.357312 -0.502187 -6.874618 18.980038 -1.024621 0.795504 -18.022665 -0.385900 -3.989200 11.046200 3.653048 2.348964 0.202727 0.685453 0.998486 -1.989075 5.975448 -10.478249 2.853746 3.493800 -5.195800 1.973000 -87.834861 7.489359 2.416120 10.634855 -18.468115 -1.923403 -0.258804 -0.094332 4.795984 -7.125000 0.000000 0.000000 85.193775 2.540426 14.438006 -9.273380 16.178889 -1.486739 0.381084 0.707799 -12.259834 7.125000 0.000000 0.000000 
14.581854 17.763837 18.238819 -132.172204 -74.132338 139.941232 -0.516046 -7.533479 -33.243080 3.729827 12.510172 36.773946 0.131752 0.284262 -6.702460 0.176700 2.707800 7.466200 33.593270 0.999820 2.861870 -0.514696 -6.904451 19.065195 -1.003634 0.613899 -17.980784 -0.358600 -3.847100 10.646800 3.658694 2.357493 0.264520 0.653477 1.006162 -1.865123 5.815859 -10.415113 2.829640 3.363900 -5.162700 1.918400 -87.669388 7.850798 2.303544 10.671012 -18.540402 -1.939777 -0.246019 -0.099995 4.034712 -7.125000 0.000000 0.000000 85.129543 2.370834 12.891098 -9.098371 15.913222 -1.437882 0.265797 0.701199 -9.987370 7.125000 0.000000 0.000000 
14.479789 17.781102 18.258115 -134.149655 -74.093563 142.135686 -1.144662 -7.182484 -33.328600 3.747549 12.540952 36.880880 0.077136 0.709211 -6.396233 0.155800 2.542900 7.008700 32.902099 1.238872 2.902130 -0.524314 -6.950015 19.192137 -0.989063 0.873221 -17.599544 -0.307900 -3.567400 9.862600 3.510652 2.540638 0.209106 0.469648 1.109780 -1.817641 5.699039 -10.418879 2.810805 3.284000 -5.163900 1.897600 -87.705440 8.208105 2.065795 10.708618 -18.603854 -1.953477 -0.244981 -0.105292 3.823419 -7.125000 0.000000 0.000000 85.002618 2.366018 9.611320 -8.728508 15.327326 -1.342330 0.626540 0.675534 -4.705069 7.125000 0.000000 0.000000 
14.375287 17.773688 18.262177 -134.045931 -73.837847 141.858158 -1.157980 -6.785014 -33.011031 3.787571 12.583949 37.043831 0.049931 0.870597 -6.109323 0.222200 3.034200 8.374100 33.117273 1.524487 3.541368 -0.542053 -6.992210 19.314298 -0.941859 0.420952 -17.539526 -0.236000 -3.126800 8.632100 3.564860 2.649016 0.210811 0.446126 1.156857 -1.913182 5.530575 -10.445264 2.864919 3.175400 -5.178600 1.901000 -87.835807 8.635488 1.806350 10.812827 -18.766952 -1.990571 -0.237234 -0.107885 3.474926 -7.125000 0.000000 0.000000 84.819346 2.125072 9.180280 -8.546963 15.041181 -1.277395 0.377125 0.629249 -4.548176 7.125000 0.000000 0.000000 
14.271394 17.764649 18.260755 -134.014840 -73.576125 141.579510 -1.153664 -6.369924 -32.584505 3.829006 12.630705 37.221854 0.069856 0.657335 -6.083462 0.331300 3.699400 10.232400 33.351543 1.757284 4.278351 -0.561513 -7.036027 19.440460 -0.885305 -0.064131 -17.422523 -0.170600 -2.660700 7.335600 3.636349 2.756346 0.259836 0.503876 1.204175 -1.935784 5.547872 -10.377456 2.918934 3.180100 -5.145300 1.918300 -87.972689 9.049668 1.776504 10.981892 -19.030035 -2.050814 -0.226083 -0.113258 3.023786 -7.125000 0.000000 0.000000 84.705276 1.638099 11.229315 -8.735592 15.355548 -1.332870 0.420562 0.679230 -9.294560 7.125000 0.000000 0.000000 
14.169330 17.767392 18.257912 -134.024222 -73.413853 141.419430 -1.239642 -5.860773 -32.300154 3.873682 12.682932 37.423149 0.133231 0.035105 -6.182185 0.330500 3.695000 10.220100 33.475364 1.988569 4.843221 -0.584889 -7.094849 19.609598 -0.833537 -0.367635 -17.183905 -0.159000 -2.569200 7.081500 3.754609 2.818007 0.278209 0.706236 1.227275 -1.989588 5.606220 -10.208314 2.871243 3.282300 -5.063800 1.900300 -88.350043 9.449060 1.599590 11.104832 -19.215579 -2.093432 -0.221336 -0.120152 2.798876 -7.125000 0.000000 0.000000 84.400863 1.269070 10.871244 -8.748363 15.380621 -1.335056 0.497653 0.663131 -9.597547 7.125000 0.000000 0.000000 
14.053555 17.772165 18.267255 -134.482933 -73.506661 141.493452 -1.652274 -5.718455 -31.617834 3.899888 12.726615 37.578392 0.180822 -0.259111 -6.667459 0.269100 3.336900 9.218100 33.250102 2.060288 5.471939 -0.626296 -7.203460 19.922626 -0.806193 -0.485980 -17.014233 -0.186000 -2.777600 7.660300 3.770649 2.793432 0.311309 0.779706 1.211591 -2.083159 5.531816 -10.129393 2.960728 3.271800 -5.028200 1.932200 -88.645041 9.830410 1.206765 11.183909 -19.334881 -2.122230 -0.213802 -0.120843 2.631375 -7.125000 0.000000 0.000000 84.142480 1.042924 8.741325 -8.556815 15.074533 -1.279432 0.551020 0.607320 -6.233125 7.125000 0.000000 0.000000 
13.935749 17.784859 18.282793 -135.972565 -73.907565 142.940521 -2.508253 -5.740646 -31.241875 3.904598 12.755244 37.667314 0.191010 -0.192563 -7.065263 0.250000 3.217400 8.884700 32.473719 2.102550 5.593048 -0.675012 -7.342296 20.326546 -0.751826 -0.767327 -16.716335 -0.143200 -2.438900 6.720200 3.604439 2.758546 0.278041 0.729746 1.209445 -2.037009 5.556095 -10.128838 3.200362 3.243600 -5.028200 2.046800 -88.619817 10.102242 1.172894 11.265760 -19.465587 -2.152909 -0.208502 -0.123879 2.305198 -7.125000 0.000000 0.000000 84.165315 0.743623 7.640948 -8.537918 15.046743 -1.274039 0.563855 0.593003 -4.916231 7.125000 0.000000 0.000000 
13.819568 17.796335 18.299855 -136.845070 -74.092260 143.848297 -3.092472 -5.461755 -30.998252 3.905176 12.768976 37.712717 0.215606 -0.377775 -7.233181 0.267200 3.325600 9.186500 32.004683 2.143196 5.619574 -0.738198 -7.509050 20.816144 -0.675782 -1.236102 -16.380263 -0.071700 -1.727500 4.753000 3.434113 2.694473 0.294269 0.443872 1.193700 -1.828997 5.600842 -9.972856 3.423317 3.243200 -4.948500 2.169000 -88.520554 10.179250 1.167312 11.306682 -19.527830 -2.167663 -0.207208 -0.124996 2.256546 -7.125000 0.000000 0.000000 84.350122 0.529813 7.201090 -8.588798 15.134109 -1.288794 0.566075 0.592519 -4.683185 7.125000 0.000000 0.000000 
